<?xml version="1.0" encoding="UTF-8"?>
<svg version="1.1" xmlns="http://www.w3.org/2000/svg" width="225" height="225">
<path d="M0 0 C74.25 0 148.5 0 225 0 C225 74.25 225 148.5 225 225 C150.75 225 76.5 225 0 225 C0 150.75 0 76.5 0 0 Z " fill="#030202" transform="translate(0,0)"/>
<path d="M0 0 C74.25 0 148.5 0 225 0 C225 74.25 225 148.5 225 225 C150.75 225 76.5 225 0 225 C0 150.75 0 76.5 0 0 Z M87 19 C83.10803505 25.04538718 81.33469391 29.81469418 82 37 C81.40832031 36.59007813 80.81664063 36.18015625 80.20703125 35.7578125 C79.41683594 35.21898438 78.62664062 34.68015625 77.8125 34.125 C77.03519531 33.59132813 76.25789063 33.05765625 75.45703125 32.5078125 C67.96554973 27.91049634 59.54444429 27.99742996 51 29 C42.17524597 31.49904539 35.74750086 37.66699578 31.0625 45.375 C27.47437079 53.17113457 27.40201661 63.06022626 30.02734375 71.17578125 C31.95186874 75.12427477 34.33335843 78.52007185 37 82 C35.88625 81.896875 34.7725 81.79375 33.625 81.6875 C26.48007902 81.71279176 20.34580084 85.45531967 15.1875 90.1875 C5.93227299 100.77873814 6.2702142 111.11382423 6.37109375 124.53125 C6.37026378 126.53324513 6.36779957 128.53524017 6.36378479 130.53723145 C6.36093622 134.71985544 6.37553593 138.90194118 6.40307617 143.08447266 C6.43715694 148.42396294 6.43113153 153.76249156 6.4124136 159.10202789 C6.40180409 163.23211568 6.41081726 167.36198285 6.42579842 171.49205017 C6.43095171 173.45986779 6.4305334 175.42770872 6.42425346 177.39552307 C6.35431189 195.31427672 6.35431189 195.31427672 15.22265625 210.46484375 C21.75441133 216.10655748 28.19667179 218.11697016 36.67776489 218.14717102 C37.34791307 218.15084771 38.01806125 218.1545244 38.70851696 218.1583125 C40.95298395 218.16932105 43.19740461 218.17318838 45.44189453 218.17700195 C47.05185594 218.18326883 48.6618159 218.18991583 50.27177429 218.19691467 C55.55877683 218.2179339 60.84577957 218.22831627 66.1328125 218.23828125 C67.95526011 218.24232985 69.77770757 218.2464468 71.60015488 218.25063133 C80.16449203 218.2696797 88.7288206 218.28391048 97.29317486 218.2922433 C107.16676451 218.30200944 117.04012959 218.32831413 126.91364014 218.36874419 C134.55288158 218.39894759 142.19205882 218.41371625 149.83135879 218.41702431 C154.39021835 218.41937031 158.94883791 218.42827178 163.50763321 218.45348549 C167.80049147 218.47684477 172.09295308 218.48096807 176.38585854 218.47072411 C177.95553091 218.47023051 179.52522333 218.47649865 181.09483528 218.49028015 C192.23512487 218.58256692 201.97297241 217.66695471 210.46484375 209.77734375 C216.68519705 202.57566245 218.14478525 195.61646579 218.19287109 186.35107422 C218.20104858 185.47897812 218.20922607 184.60688202 218.21765137 183.70835876 C218.24245033 180.82380855 218.2590095 177.93930747 218.2734375 175.0546875 C218.28142302 173.57296743 218.28142302 173.57296743 218.28956985 172.06131363 C218.31628066 166.83027168 218.33566009 161.59925339 218.35009766 156.36816406 C218.36342183 152.04991402 218.39124965 147.73213819 218.43212891 143.4140625 C218.48158082 138.1898336 218.50623431 132.9660339 218.51332474 127.74158096 C218.52001608 125.75696247 218.53518261 123.77235275 218.55921555 121.7878685 C218.70281616 109.21027567 218.42231345 100.04740313 209.8125 90.1875 C204.65419916 85.45531967 198.51992098 81.71279176 191.375 81.6875 C190.26125 81.790625 189.1475 81.89375 188 82 C188.40992188 81.40832031 188.81984375 80.81664063 189.2421875 80.20703125 C189.78101563 79.41683594 190.31984375 78.62664062 190.875 77.8125 C191.40867188 77.03519531 191.94234375 76.25789063 192.4921875 75.45703125 C197.08950366 67.96554973 197.00257004 59.54444429 196 51 C193.82075341 43.30453548 188.72132633 36.85192456 181.87890625 32.71875 C173.91214277 28.6257339 165.84085254 27.92844764 157 29 C151.64246896 30.7280206 147.43012996 33.59758037 143 37 C143.1546875 35.329375 143.1546875 35.329375 143.3125 33.625 C143.28720824 26.48007902 139.54468033 20.34580084 134.8125 15.1875 C126.65756195 7.84979454 118.80432218 5.9744635 108.0703125 6.51953125 C99.27927161 7.32331827 92.2937496 12.06706905 87 19 Z " fill="#FAFAFA" transform="translate(0,0)"/>
<path d="M0 0 C60.39 0 120.78 0 183 0 C181.86814891 6.79110651 181.86814891 6.79110651 179.1875 9.75 C178.68605469 10.32234375 178.18460938 10.8946875 177.66796875 11.484375 C174.84769278 14.04706136 172.82525573 15 169 15 C169.3609375 15.64066406 169.721875 16.28132813 170.09375 16.94140625 C170.5578125 17.80636719 171.021875 18.67132813 171.5 19.5625 C171.9640625 20.40941406 172.428125 21.25632813 172.90625 22.12890625 C174 25 174 25 174 32 C168.72 32 163.44 32 158 32 C157.01 29.69 156.02 27.38 155 25 C152.41999955 22.03777726 151.05145998 22.00490095 147.0625 21.625 C143.32337578 21.77818572 140.94439098 22.57520743 138 25 C136.24736495 27.88192986 135.74580836 30.04559288 135.7253418 33.39794922 C135.71580978 34.25919403 135.70627777 35.12043884 135.69645691 36.00778198 C135.69736832 36.9307608 135.69827972 37.85373962 135.69921875 38.8046875 C135.69279106 40.23979172 135.69279106 40.23979172 135.68623352 41.70388794 C135.68049514 43.72624928 135.67998633 45.74863127 135.68432617 47.77099609 C135.6874814 50.85680602 135.66403709 53.94165264 135.63867188 57.02734375 C135.63639828 58.99479046 135.63569566 60.96223974 135.63671875 62.9296875 C135.62290413 64.30808304 135.62290413 64.30808304 135.60881042 65.71432495 C135.64601753 70.89654987 136.10325287 74.51514547 139 79 C142.34870986 81.63112918 145.87988064 81.36141398 150 81 C153.82818988 79.29858228 155.50796437 77.87541723 157 74 C157.28878735 71.59162245 157.49045026 69.17189532 157.625 66.75 C157.69976562 65.48671875 157.77453125 64.2234375 157.8515625 62.921875 C157.92503906 61.47554687 157.92503906 61.47554687 158 60 C154.04 60 150.08 60 146 60 C146 54.39 146 48.78 146 43 C155.24 43 164.48 43 174 43 C174.11557972 47.80297936 174.21485655 52.60102819 174.2746582 57.40429688 C174.29961442 59.03369603 174.33359254 60.66298542 174.37719727 62.29199219 C174.65503567 72.94791236 174.7180628 81.85725161 167.02441406 90.12231445 C160.6713818 96.19362484 155.37946114 98.15965212 146.6875 98.5 C138.79198609 98.3205565 133.1685642 96.64410276 127.19921875 91.42578125 C117.52643095 81.12894263 118.46782874 69.33013495 118.5847168 56.11279297 C118.59918637 53.69186773 118.58404198 51.27243355 118.56640625 48.8515625 C118.58288712 48.10782379 118.59936798 47.36408508 118.61634827 46.59780884 C118.64876506 44.25463544 118.64876506 44.25463544 118 41 C115.61266443 38.93876084 115.61266443 38.93876084 113 38 C112.6757605 39.59932373 112.6757605 39.59932373 112.3449707 41.23095703 C104.42362836 80.26338181 104.42362836 80.26338181 100 99 C94.39 99 88.78 99 83 99 C81.43116492 91.50769986 79.86571028 84.01470866 78.30618286 76.52046585 C77.58188173 73.04054289 76.85610866 69.56094058 76.12695312 66.08203125 C75.2885659 62.08163853 74.45661595 58.07993088 73.625 54.078125 C73.23127197 52.20607391 73.23127197 52.20607391 72.82958984 50.29620361 C72.58934082 49.13530212 72.3490918 47.97440063 72.1015625 46.77832031 C71.78179443 45.24609833 71.78179443 45.24609833 71.45556641 43.68292236 C71 41 71 41 71 37 C66.14256071 41.16704183 61.46980492 45.41844996 57 50 C58.01462597 52.09562933 59.06425303 54.10397309 60.2890625 56.0859375 C64.47775181 63.26304843 65.14781715 69.80533822 64 78 C61.36424018 86.88662142 55.56294419 92.11323939 47.9375 96.9375 C40.37321313 99.69603581 30.69217441 99.26805507 23.4375 95.9375 C17.10546936 92.21401354 12.61350929 86.87765603 10 80 C9.49487474 76.98905726 9.2311413 74.05106515 9 71 C14.61 71 20.22 71 26 71 C26.99 74.465 26.99 74.465 28 78 C30.87847196 80.54950374 32.67262556 80.96492417 36.5 81.375 C40.22945665 80.97541536 42.05442338 80.27230196 45 78 C47.12812092 74.80781862 47.2986123 72.89580568 47.4609375 69.1328125 C46.75187799 65.85191001 45.41040608 64.32240713 43 62 C40.33287677 61.09652644 37.98346329 60.46102985 35.25 59.9375 C25.6663265 57.79834484 18.68484785 55.47681454 13 47 C8.87293533 40.33517507 7.81338803 33.74730132 9 26 C10.35553859 22.14445424 12.0286396 18.57661101 14 15 C13.25105469 14.89300781 12.50210938 14.78601563 11.73046875 14.67578125 C8.82994555 13.95791213 7.52085201 13.14772257 5.3125 11.1875 C4.44044922 10.43533203 4.44044922 10.43533203 3.55078125 9.66796875 C0.54682492 6.4370132 0 4.45998276 0 0 Z " fill="#24190A" transform="translate(21,114)"/>
<path d="M0 0 C5.00230198 2.45567552 8.49851535 5.9970307 11 11 C11.14792873 12.76661038 11.2212169 14.53994064 11.25 16.3125 C11.27578125 17.25738281 11.3015625 18.20226562 11.328125 19.17578125 C11 22 11 22 9.51147461 24.18115234 C7.58709137 27.77006026 7.5236647 30.95048323 7.48828125 34.92578125 C7.46135445 36.04716743 7.46135445 36.04716743 7.43388367 37.19120789 C7.37996151 39.56491558 7.34594446 41.93842432 7.3125 44.3125 C7.27931079 45.92776195 7.24481965 47.54299771 7.20898438 49.15820312 C7.12424601 53.10532476 7.05734951 57.05238927 7 61 C12.42619465 56.32289719 17.73461462 51.55261202 22.875 46.5625 C23.53757812 45.94568359 24.20015625 45.32886719 24.8828125 44.69335938 C29.42222603 40.26005002 30.79326862 37.19412648 32 31 C33.3671875 28.7578125 33.3671875 28.7578125 34.875 27.125 C35.36742187 26.57070313 35.85984375 26.01640625 36.3671875 25.4453125 C40.67673619 21.63064022 44.73970478 21.57236428 50.30859375 21.68359375 C55.40755059 22.2830357 58.03675211 24.90658348 61.3125 28.625 C64.78782242 33.51619452 64.59805518 38.12743039 64 44 C61.82165723 48.43736489 59.14541831 51.3285082 55 54 C53.6735692 54.32999436 52.34367327 54.64618507 51.01171875 54.953125 C44.18396886 57.16370651 39.82569038 62.49594472 35 67.5625 C34.03911706 68.54494849 33.07688592 69.52608026 32.11328125 70.50585938 C27.54303404 74.86865844 27.54303404 74.86865844 24 80 C28.73293463 79.95570273 33.46455341 79.88572153 38.19677734 79.79248047 C39.80474341 79.76434995 41.41284572 79.74309611 43.02099609 79.72900391 C45.34022367 79.70746309 47.65782695 79.66076128 49.9765625 79.609375 C51.04567368 79.60753204 51.04567368 79.60753204 52.13638306 79.60565186 C57.22745583 79.45807579 59.97223167 78.00702748 64 75 C69.20244665 74.00627424 73.68548658 74.35469341 78.4375 76.6875 C81.53574681 79.48347883 84.12480734 82.24961469 86 86 C86 87.98 86 89.96 86 92 C25.61 92 -34.78 92 -97 92 C-97 85.74313815 -96.71263509 84.61570849 -93 80 C-88.73557755 76.24324689 -86.34009954 74.84178781 -80.6875 74.75 C-79.27017578 74.71132812 -79.27017578 74.71132812 -77.82421875 74.671875 C-75 75 -75 75 -72.81884766 76.48852539 C-69.22993974 78.41290863 -66.04951677 78.4763353 -62.07421875 78.51171875 C-60.95283257 78.53864555 -60.95283257 78.53864555 -59.80879211 78.56611633 C-57.43508442 78.62003849 -55.06157568 78.65405554 -52.6875 78.6875 C-51.07223805 78.72068921 -49.45700229 78.75518035 -47.84179688 78.79101562 C-43.89467524 78.87575399 -39.94761073 78.94265049 -36 79 C-40.67710281 73.57380535 -45.44738798 68.26538538 -50.4375 63.125 C-51.05431641 62.46242187 -51.67113281 61.79984375 -52.30664062 61.1171875 C-56.73994998 56.57777397 -59.80587352 55.20673138 -66 54 C-68.2421875 52.6328125 -68.2421875 52.6328125 -69.875 51.125 C-70.42929688 50.63257813 -70.98359375 50.14015625 -71.5546875 49.6328125 C-75.36935978 45.32326381 -75.42763572 41.26029522 -75.31640625 35.69140625 C-74.7169643 30.59244941 -72.09341652 27.96324789 -68.375 24.6875 C-63.48380548 21.21217758 -58.87256961 21.40194482 -53 22 C-48.56263511 24.17834277 -45.6714918 26.85458169 -43 31 C-42.65811057 32.33639774 -42.33163854 33.67677932 -42.015625 35.01953125 C-39.86659483 41.65716954 -34.88042128 45.80301244 -29.9375 50.5 C-28.55208008 51.85738281 -28.55208008 51.85738281 -27.13867188 53.2421875 C-22.93830268 57.6161232 -22.93830268 57.6161232 -18 61 C-18.06902205 56.24891856 -18.15705753 51.49870507 -18.26245117 46.74829102 C-18.2956311 45.13348037 -18.32368458 43.51855569 -18.34643555 41.90356445 C-18.38011025 39.57714408 -18.43242963 37.25176217 -18.48828125 34.92578125 C-18.49467117 34.20787918 -18.5010611 33.48997711 -18.50764465 32.75032043 C-18.63723156 28.296401 -19.48851876 25.6491117 -22 22 C-22.84308545 16.78198463 -22.6485837 12.32118902 -20.3125 7.5625 C-13.99448295 0.56145408 -9.25933963 -0.94295962 0 0 Z " fill="#FAAE3A" transform="translate(118,21)"/>
<path d="M0 0 C0.70181396 0.00644531 1.40362793 0.01289062 2.12670898 0.01953125 C10.54922541 0.31557068 15.3662363 3.37964898 21 9.375 C25.90979491 15.44674173 27.125 19.4057809 27.125 27.5 C21.845 27.5 16.565 27.5 11.125 27.5 C10.135 25.19 9.145 22.88 8.125 20.5 C5.54499955 17.53777726 4.17645998 17.50490095 0.1875 17.125 C-3.55162422 17.27818572 -5.93060902 18.07520743 -8.875 20.5 C-10.62763505 23.38192986 -11.12919164 25.54559288 -11.1496582 28.89794922 C-11.15919022 29.75919403 -11.16872223 30.62043884 -11.17854309 31.50778198 C-11.17717598 32.89225021 -11.17717598 32.89225021 -11.17578125 34.3046875 C-11.18006638 35.26142365 -11.1843515 36.21815979 -11.18876648 37.20388794 C-11.19450486 39.22624928 -11.19501367 41.24863127 -11.19067383 43.27099609 C-11.1875186 46.35680602 -11.21096291 49.44165264 -11.23632812 52.52734375 C-11.23860172 54.49479046 -11.23930434 56.46223974 -11.23828125 58.4296875 C-11.247491 59.34861786 -11.25670074 60.26754822 -11.26618958 61.21432495 C-11.22898247 66.39654987 -10.77174713 70.01514547 -7.875 74.5 C-4.52629014 77.13112918 -0.99511936 76.86141398 3.125 76.5 C6.95318988 74.79858228 8.63296437 73.37541723 10.125 69.5 C10.41378735 67.09162245 10.61545026 64.67189532 10.75 62.25 C10.82476562 60.98671875 10.89953125 59.7234375 10.9765625 58.421875 C11.02554688 57.45765625 11.07453125 56.4934375 11.125 55.5 C7.165 55.5 3.205 55.5 -0.875 55.5 C-0.875 49.89 -0.875 44.28 -0.875 38.5 C8.365 38.5 17.605 38.5 27.125 38.5 C27.24057972 43.30297936 27.33985655 48.10102819 27.3996582 52.90429688 C27.42461442 54.53369603 27.45859254 56.16298542 27.50219727 57.79199219 C27.78003567 68.44791236 27.8430628 77.35725161 20.14941406 85.62231445 C13.7963818 91.69362484 8.50446114 93.65965212 -0.1875 94 C-8.08301391 93.8205565 -13.7064358 92.14410276 -19.67578125 86.92578125 C-26.79466731 79.34761222 -28.49442354 70.99364995 -28.4765625 60.88671875 C-28.48513275 59.79591507 -28.493703 58.70511139 -28.50253296 57.58125305 C-28.51396473 55.28442141 -28.51506066 52.9875174 -28.50634766 50.69067383 C-28.50003573 47.20721713 -28.54697422 43.72717724 -28.59765625 40.24414062 C-28.72980971 17.00129901 -28.72980971 17.00129901 -20.05517578 7.50854492 C-14.39216616 2.0087763 -7.78077429 -0.07496832 0 0 Z " fill="#FBFBFB" transform="translate(167.875,118.5)"/>
<path d="M0 0 C0.70181396 0.00644531 1.40362793 0.01289062 2.12670898 0.01953125 C10.54922541 0.31557068 15.3662363 3.37964898 21 9.375 C25.90979491 15.44674173 27.125 19.4057809 27.125 27.5 C21.845 27.5 16.565 27.5 11.125 27.5 C10.135 25.19 9.145 22.88 8.125 20.5 C5.54499955 17.53777726 4.17645998 17.50490095 0.1875 17.125 C-3.5322995 17.26379849 -5.90508359 18.16006586 -8.875 20.5 C-10.07756511 22.90513021 -10.1453777 24.62853564 -10.25 27.3125 C-10.29898438 28.16457031 -10.34796875 29.01664063 -10.3984375 29.89453125 C-9.62527371 33.74304057 -7.94571889 35.12438392 -4.875 37.5 C-1.36433875 38.55791731 -1.36433875 38.55791731 2.4375 39 C11.39876586 40.48794103 17.24103011 43.51220877 22.87109375 50.70703125 C27.87116895 57.85667148 28.11815558 64.92448355 27.125 73.5 C24.52471477 82.38430787 18.6699735 87.6246086 11.0625 92.4375 C3.49821313 95.19603581 -6.18282559 94.76805507 -13.4375 91.4375 C-19.76953064 87.71401354 -24.26149071 82.37765603 -26.875 75.5 C-27.38012526 72.48905726 -27.6438587 69.55106515 -27.875 66.5 C-22.265 66.5 -16.655 66.5 -10.875 66.5 C-9.885 69.965 -9.885 69.965 -8.875 73.5 C-5.99652804 76.04950374 -4.20237444 76.46492417 -0.375 76.875 C3.35445665 76.47541536 5.17942338 75.77230196 8.125 73.5 C10.25312092 70.30781862 10.4236123 68.39580568 10.5859375 64.6328125 C9.87687799 61.35191001 8.53540608 59.82240713 6.125 57.5 C3.45787677 56.59652644 1.10846329 55.96102985 -1.625 55.4375 C-11.2086735 53.29834484 -18.19015215 50.97681454 -23.875 42.5 C-27.99851323 35.84091032 -29.1406271 29.23868174 -27.875 21.5 C-24.74342456 12.37084898 -20.23912133 6.19179003 -11.64453125 1.87890625 C-7.8185289 0.29980061 -4.11165785 -0.03961612 0 0 Z " fill="#FBFBFB" transform="translate(57.875,118.5)"/>
<path d="M0 0 C5.28 0 10.56 0 16 0 C17.36026501 3.40066252 18.32819255 6.00889575 19.03735352 9.4831543 C19.21416153 10.33721359 19.39096954 11.19127289 19.57313538 12.07121277 C19.75653976 12.97970474 19.93994415 13.88819672 20.12890625 14.82421875 C20.32346909 15.7668306 20.51803192 16.70944244 20.7184906 17.68061829 C21.33753214 20.68203321 21.95048235 23.68464561 22.5625 26.6875 C23.17872448 29.7009265 23.79629421 32.71405551 24.41722107 35.72651672 C24.80298262 37.59895868 25.18592863 39.47198329 25.56581116 41.34562683 C25.73946701 42.19022964 25.91312286 43.03483246 26.09204102 43.9050293 C26.31948753 45.0215815 26.31948753 45.0215815 26.55152893 46.16069031 C26.94717174 48.07984983 26.94717174 48.07984983 28 50 C28.16081055 49.22100342 28.32162109 48.44200684 28.48730469 47.6394043 C29.92815069 40.66178381 31.37122718 33.68463216 32.81755066 26.70814514 C33.63234506 22.77733204 34.44394511 18.84587385 35.25390625 14.9140625 C35.60657804 13.21350167 35.95942685 11.51297754 36.3125 9.8125 C36.47137695 9.03672607 36.63025391 8.26095215 36.79394531 7.46166992 C37.88585957 2.22828085 37.88585957 2.22828085 39 0 C44.28 0 49.56 0 55 0 C54.35359854 8.15237663 52.91067647 15.98545849 51.234375 23.984375 C50.95593396 25.32977466 50.67788675 26.67525589 50.40020752 28.02081299 C49.8182842 30.83533868 49.23300813 33.64913762 48.64501953 36.46240234 C47.90622016 39.99756084 47.17363793 43.53396838 46.44330597 47.0708847 C43.1347634 63.08721592 39.70852084 79.07069782 36 95 C30.39 95 24.78 95 19 95 C16.66699921 83.79547049 14.33669491 72.59038937 12.01108646 61.38432312 C10.93102098 56.18050751 9.84979196 50.97693942 8.76586914 45.77392578 C7.71919072 40.74947445 6.67561412 35.72438787 5.63415337 30.69885254 C5.23696939 28.78496522 4.83868247 26.87130645 4.43925667 24.95788574 C3.87850824 22.27070405 3.32174441 19.58272462 2.76586914 16.89453125 C2.60115112 16.10977921 2.43643311 15.32502716 2.26672363 14.51649475 C1.27410522 9.69056592 0.55392167 4.89629007 0 0 Z " fill="#F7F7F7" transform="translate(85,118)"/>
<path d="M0 0 C0.99 0.33 1.98 0.66 3 1 C5.475 13.375 5.475 13.375 8 26 C4.04 29.465 4.04 29.465 0 33 C-1.35117999 34.29412003 -2.69075063 35.60097461 -4 36.9375 C-4.86625 37.81728516 -4.86625 37.81728516 -5.75 38.71484375 C-6.1625 39.13894531 -6.575 39.56304687 -7 40 C-7.72703125 39.59007812 -8.4540625 39.18015625 -9.203125 38.7578125 C-15.68205293 35.28577163 -21.15094258 33.42484637 -28.421875 32.4921875 C-31.79598352 31.84803951 -33.70740349 30.52976166 -36 28 C-37.85726616 24.28546768 -37.58501089 20.04420575 -37 16 C-34.80977082 13.17575712 -33.16982793 11.58491397 -30 10 C-22.92046023 9.41970985 -22.92046023 9.41970985 -19.125 11.8125 C-15.94624752 15.0847452 -15 16.32864643 -15 21 C-9.72 21 -4.44 21 1 21 C0.71125 19.515 0.4225 18.03 0.125 16.5 C-0.05160156 15.59121094 -0.22820312 14.68242187 -0.41015625 13.74609375 C-0.93531485 11.30115008 -1.59498597 8.95569897 -2.3125 6.5625 C-2.539375 5.386875 -2.76625 4.21125 -3 3 C-1.625 1 -1.625 1 0 0 Z " fill="#241809" transform="translate(84,125)"/>
<path d="M0 0 C2.31 1.98 4.62 3.96 7 6 C10.01712028 6.7905352 10.01712028 6.7905352 13.06640625 7.4375 C16.46610565 8.42650346 18.49500319 10.55762811 21 13 C21 13.33 21 13.66 21 14 C17.37 14.33 13.74 14.66 10 15 C10 20.61 10 26.22 10 32 C13.3 32.33 16.6 32.66 20 33 C17.47355769 38.05288462 17.47355769 38.05288462 14 40 C11.0546875 40.328125 11.0546875 40.328125 7.875 40.25 C6.82054687 40.23453125 5.76609375 40.2190625 4.6796875 40.203125 C2 40 2 40 0 39 C0 26.13 0 13.26 0 0 Z " fill="#251908" transform="translate(158,142)"/>
<path d="M0 0 C3.38186376 1.9427728 4.70264591 2.99357079 5.8125 6.75 C5.874375 7.4925 5.93625 8.235 6 9 C5.01 9 4.02 9 3 9 C2.278125 9.78375 1.55625 10.5675 0.8125 11.375 C-2.68568482 14.63997249 -5.42932629 15.16401197 -10 16 C-10.72058594 16.20109375 -11.44117188 16.4021875 -12.18359375 16.609375 C-12.78300781 16.73828125 -13.38242187 16.8671875 -14 17 C-15.64156736 15.35843264 -15.28815992 13.50784199 -15.375 11.25 C-15.35176468 7.18962832 -15.2199311 6.28359537 -12.625 2.9375 C-8.47967907 -0.12214164 -5.10148189 -0.70365267 0 0 Z " fill="#030302" transform="translate(62,135)"/>
<path d="M0 0 C3.09117357 0.69825318 6.17066681 1.43889578 9.25 2.1875 C10.12269531 2.38408203 10.99539062 2.58066406 11.89453125 2.78320312 C16.16380313 3.84237363 18.47230798 4.45887869 21.609375 7.67578125 C22.06828125 8.44277344 22.5271875 9.20976562 23 10 C18.53026793 12.97982138 14.24075136 12.60816742 9 12 C4.60906561 9.84445039 1.64494311 7.12611125 -1 3 C-0.67 2.01 -0.34 1.02 0 0 Z " fill="#24180A" transform="translate(45,170)"/>
<path d="M0 0 C0.33 0.66 0.66 1.32 1 2 C1.66 2 2.32 2 3 2 C3.39012425 3.76756294 3.7616098 5.53924783 4.125 7.3125 C4.33382812 8.29863281 4.54265625 9.28476563 4.7578125 10.30078125 C5 13 5 13 3 16 C-1.01676824 11.14640505 -0.28136159 5.95027665 0 0 Z " fill="#221608" transform="translate(96,182)"/>
<path d="M0 0 C0.33 0 0.66 0 1 0 C1.55353075 11.70615034 1.55353075 11.70615034 -2 16 C-3.48334572 13.64913801 -4.09992214 12.52894566 -3.57421875 9.74609375 C-3.28160156 8.98425781 -2.98898438 8.22242188 -2.6875 7.4375 C-2.40261719 6.67308594 -2.11773437 5.90867188 -1.82421875 5.12109375 C-1.55222656 4.42113281 -1.28023438 3.72117188 -1 3 C-0.67 2.01 -0.34 1.02 0 0 Z " fill="#23180B" transform="translate(128,182)"/>
<path d="M0 0 C2.97 0 5.94 0 9 0 C7.35 1.65 5.7 3.3 4 5 C2.68 3.35 1.36 1.7 0 0 Z " fill="#070401" transform="translate(141,124)"/>
<path d="M0 0 C2.97 0 5.94 0 9 0 C7.35 1.65 5.7 3.3 4 5 C2.68 3.35 1.36 1.7 0 0 Z " fill="#090603" transform="translate(75,124)"/>
</svg>
