<?xml version="1.0" encoding="UTF-8"?>
<svg version="1.1" xmlns="http://www.w3.org/2000/svg" width="163" height="148">
<path d="M0 0 C53.79 0 107.58 0 163 0 C163 48.84 163 97.68 163 148 C109.21 148 55.42 148 0 148 C0 99.16 0 50.32 0 0 Z " fill="#E9E9E9" transform="translate(0,0)"/>
<path d="M0 0 C8.16690417 0.65784493 16.16040215 1.97610124 24.20654297 3.47412109 C26.38977539 3.8777315 28.57553002 4.26510952 30.76171875 4.65234375 C32.16164094 4.91046997 33.56138763 5.1695502 34.9609375 5.4296875 C36.84498291 5.77362549 36.84498291 5.77362549 38.76708984 6.12451172 C41.9286487 6.98067771 43.73489235 7.65072441 46 10 C46.0466547 12.80239234 45.87631881 15.07936311 45.4375 17.8125 C45.33034668 18.5744165 45.22319336 19.33633301 45.11279297 20.12133789 C44.08067845 27.15601314 42.60888141 34.07671392 41 41 C40.45048132 43.46084366 39.90653154 45.92288309 39.36279297 48.38500977 C38.58054953 51.92453988 37.79018121 55.46223439 37 59 C32.04093311 59.13351334 27.60594884 58.67799166 22.75 57.6875 C18.14863456 56.76425935 13.5556051 55.91121599 8.91015625 55.23828125 C8.06163086 55.11428955 7.21310547 54.99029785 6.33886719 54.86254883 C4.68841647 54.62569926 3.0367255 54.39729644 1.38378906 54.1784668 C0.62420898 54.06801025 -0.13537109 53.95755371 -0.91796875 53.84375 C-1.58594482 53.75287109 -2.2539209 53.66199219 -2.94213867 53.56835938 C-5.61229373 52.83089099 -7.68297664 51.4937808 -10 50 C-9.50364027 41.78957248 -8.34623269 33.96169689 -6.5625 25.9375 C-6.12489741 23.92608634 -5.68869156 21.91436827 -5.25390625 19.90234375 C-4.93510498 18.44223877 -4.93510498 18.44223877 -4.60986328 16.95263672 C-3.80983162 13.07930491 -3.16213129 9.18549301 -2.54272461 5.27954102 C-2 3 -2 3 0 0 Z " fill="#AAAAAA" transform="translate(74,26)"/>
<path d="M0 0 C11.16339758 0.5543468 22.18338684 2.13758837 33 5 C33.56081642 13.55245038 31.84756354 21.22690838 29.97265625 29.51171875 C29.11415333 33.32900518 28.49352256 37.11935417 28 41 C21.10613588 40.43028206 14.40156727 39.44139304 7.625 38.0625 C6.31208984 37.80823242 6.31208984 37.80823242 4.97265625 37.54882812 C3.70615234 37.29456055 3.70615234 37.29456055 2.4140625 37.03515625 C1.6607666 36.8844165 0.9074707 36.73367676 0.13134766 36.57836914 C-2.10057479 35.97270771 -3.97155486 35.10039271 -6 34 C-4.55847904 22.54370188 -2.34190615 11.30026559 0 0 Z " fill="#FCFCFC" transform="translate(78,33)"/>
<path d="M0 0 C-0.56291453 9.16191918 -2.20796488 18.01728306 -4 27 C-4.66 27 -5.32 27 -6 27 C-6 31.62 -6 36.24 -6 41 C-3.36 41.99 -0.72 42.98 2 44 C-1.56055571 47.56055571 -4.69986294 49.68634495 -9.75 50.375 C-10.86375 50.189375 -10.86375 50.189375 -12 50 C-14 47 -14 47 -14 43 C-14.66 43 -15.32 43 -16 43 C-18.33333333 36 -20.66666667 29 -23 22 C-23.66 22 -24.32 22 -25 22 C-26.99785435 17.8794254 -27.17835515 14.54805635 -27 10 C-26.14277344 9.68546875 -25.28554688 9.3709375 -24.40234375 9.046875 C-16.99382201 6.34525509 -16.99382201 6.34525509 -10 2.75 C-6.59338672 0.76280892 -3.9092775 0 0 0 Z " fill="#CDCDCD" transform="translate(67,37)"/>
<path d="M0 0 C0.99 0.33 1.98 0.66 3 1 C3.33 6.28 3.66 11.56 4 17 C3.01 16.67 2.02 16.34 1 16 C-0.14077657 12.57767028 -0.09815117 9.91326783 -0.0625 6.3125 C-0.05347656 5.13300781 -0.04445313 3.95351562 -0.03515625 2.73828125 C-0.02355469 1.83464844 -0.01195313 0.93101563 0 0 Z M14 0 C14.99 0 15.98 0 17 0 C17.33 3.63 17.66 7.26 18 11 C19.32 7.7 20.64 4.4 22 1 C22.99 1 23.98 1 25 1 C25.67119549 2.4562545 26.33681807 3.91507867 27 5.375 C27.556875 6.59316406 27.556875 6.59316406 28.125 7.8359375 C29 10 29 10 29 12 C28.236875 11.896875 27.47375 11.79375 26.6875 11.6875 C25.800625 11.790625 24.91375 11.89375 24 12 C22.3553326 14.46326712 22.3553326 14.46326712 21 17 C20.01 17 19.02 17 18 17 C19.65 17.33 21.3 17.66 23 18 C22.690625 19.0828125 22.690625 19.0828125 22.375 20.1875 C21.93584572 23.48115707 22.66396516 25.01356919 24 28 C24 28.99 24 29.98 24 31 C23.01 30.67 22.02 30.34 21 30 C21 29.34 21 28.68 21 28 C19.02 28 17.04 28 15 28 C15 28.99 15 29.98 15 31 C14.34 31 13.68 31 13 31 C12.67 31.66 12.34 32.32 12 33 C9.69 32.34 7.38 31.68 5 31 C4.505 32.485 4.505 32.485 4 34 C3.01 33.67 2.02 33.34 1 33 C-0.38226016 30.23547967 -0.09525387 27.9538637 -0.0625 24.875 C-0.05347656 23.77929688 -0.04445313 22.68359375 -0.03515625 21.5546875 C-0.02355469 20.71164063 -0.01195313 19.86859375 0 19 C1.32 19 2.64 19 4 19 C4.38218767 17.34385343 4.71395102 15.67542976 5 14 C4.67 13.67 4.34 13.34 4 13 C3.92755947 10.98035801 3.91622812 8.95832876 3.9375 6.9375 C3.94652344 5.83277344 3.95554687 4.72804688 3.96484375 3.58984375 C3.97644531 2.73519531 3.98804687 1.88054687 4 1 C5.32 1 6.64 1 8 1 C8.66 2.65 9.32 4.3 10 6 C10.598125 5.01 11.19625 4.02 11.8125 3 C12.8953125 1.515 12.8953125 1.515 14 0 Z " fill="#E4E4E4" transform="translate(72,101)"/>
<path d="M0 0 C0.12375 0.639375 0.2475 1.27875 0.375 1.9375 C0.58125 2.618125 0.7875 3.29875 1 4 C1.66 4.33 2.32 4.66 3 5 C3 3.35 3 1.7 3 0 C5.64 0 8.28 0 11 0 C11 0.33 11 0.66 11 1 C9.35 1 7.7 1 6 1 C6 1.99 6 2.98 6 4 C7.98 4 9.96 4 12 4 C12 4.66 12 5.32 12 6 C10.02 6 8.04 6 6 6 C6 6.99 6 7.98 6 9 C7.98 9 9.96 9 12 9 C12 10.65 12 12.3 12 14 C12.99 14 13.98 14 15 14 C15 14.66 15 15.32 15 16 C14.01 16 13.02 16 12 16 C12.99 16.33 13.98 16.66 15 17 C15 17.99 15 18.98 15 20 C13.02 20 11.04 20 9 20 C9 20.99 9 21.98 9 23 C10.65 23 12.3 23 14 23 C14 23.33 14 23.66 14 24 C12.35 24 10.7 24 9 24 C9 25.32 9 26.64 9 28 C10.65 28 12.3 28 14 28 C14 28.33 14 28.66 14 29 C7.25 29.125 7.25 29.125 5 28 C5 28.66 5 29.32 5 30 C2.36 30 -0.28 30 -3 30 C-3.33 29.34 -3.66 28.68 -4 28 C-4.33 28.33 -4.66 28.66 -5 29 C-8.00331018 29.14193337 -10.99217134 29.04236378 -14 29 C-14 25.04 -14 21.08 -14 17 C-12.35 16.34 -10.7 15.68 -9 15 C-7.65589738 12.98264795 -7.65589738 12.98264795 -7 11 C-7.66 10.01 -8.32 9.02 -9 8 C-9.375 5 -9.375 5 -9 2 C-6.09797328 -1.3319566 -4.08536588 -1.24830624 0 0 Z " fill="#E5E5E5" transform="translate(111,102)"/>
<path d="M0 0 C8.16690417 0.65784493 16.16040215 1.97610124 24.20654297 3.47412109 C26.38977539 3.8777315 28.57553002 4.26510952 30.76171875 4.65234375 C32.16164094 4.91046997 33.56138763 5.1695502 34.9609375 5.4296875 C36.84498291 5.77362549 36.84498291 5.77362549 38.76708984 6.12451172 C41.89350546 6.97116074 43.61676937 7.85844909 46 10 C45.67 11.32 45.34 12.64 45 14 C45 13.34 45 12.68 45 12 C44.34 12 43.68 12 43 12 C43 12.99 43 13.98 43 15 C41.68 15 40.36 15 39 15 C38.34 15.66 37.68 16.32 37 17 C37 15.35 37 13.7 37 12 C36.12214844 11.87753906 35.24429688 11.75507812 34.33984375 11.62890625 C28.40665626 10.78130804 22.48566125 9.85198698 16.5625 8.9375 C15.35400391 8.75123047 14.14550781 8.56496094 12.90039062 8.37304688 C9.93354086 7.9157064 6.96674587 7.45801387 4 7 C3.89042969 7.8971875 3.78085938 8.794375 3.66796875 9.71875 C2.68253986 17.47399529 1.49212499 25.1383954 -0.03442383 32.80664062 C-0.58439475 35.5992904 -1 38.14419104 -1 41 C-0.01 41.66 0.98 42.32 2 43 C1.01 43 0.02 43 -1 43 C-1 43.66 -1 44.32 -1 45 C-3.375 46.0625 -3.375 46.0625 -6 47 C-6.66 46.67 -7.32 46.34 -8 46 C-8.66 46.66 -9.32 47.32 -10 48 C-9.43819213 40.53568659 -8.15983634 33.36926594 -6.5625 26.0625 C-6.12488658 24.03285676 -5.68868074 22.00290951 -5.25390625 19.97265625 C-4.93510498 18.49369873 -4.93510498 18.49369873 -4.60986328 16.98486328 C-3.8157839 13.09838828 -3.16474632 9.19255217 -2.54272461 5.27514648 C-2 3 -2 3 0 0 Z " fill="#B7B7B7" transform="translate(74,26)"/>
<path d="M0 0 C0.928125 0.268125 1.85625 0.53625 2.8125 0.8125 C4.41975635 4.02701269 3.86998185 7.24862536 3.8125 10.8125 C3.1525 10.8125 2.4925 10.8125 1.8125 10.8125 C1.8125 11.4725 1.8125 12.1325 1.8125 12.8125 C0.1625 13.1425 -1.4875 13.4725 -3.1875 13.8125 C-4.1775 16.7825 -5.1675 19.7525 -6.1875 22.8125 C-4.8933258 21.58369784 -4.8933258 21.58369784 -3.1875 18.8125 C-2.5275 19.1425 -1.8675 19.4725 -1.1875 19.8125 C-2.5075 23.1125 -3.8275 26.4125 -5.1875 29.8125 C-6.5075 29.8125 -7.8275 29.8125 -9.1875 29.8125 C-9.1875 30.8025 -9.1875 31.7925 -9.1875 32.8125 C-9.8475 32.8125 -10.5075 32.8125 -11.1875 32.8125 C-11.1875 32.1525 -11.1875 31.4925 -11.1875 30.8125 C-12.1775 30.8125 -13.1675 30.8125 -14.1875 30.8125 C-14.1875 29.8225 -14.1875 28.8325 -14.1875 27.8125 C-16.1675 27.8125 -18.1475 27.8125 -20.1875 27.8125 C-20.5175 28.8025 -20.8475 29.7925 -21.1875 30.8125 C-21.8475 30.8125 -22.5075 30.8125 -23.1875 30.8125 C-22.51073265 25.2630077 -21.24088899 19.86588899 -17.1875 15.8125 C-16.1975 15.8125 -15.2075 15.8125 -14.1875 15.8125 C-14.1875 15.1525 -14.1875 14.4925 -14.1875 13.8125 C-15.8375 13.4825 -17.4875 13.1525 -19.1875 12.8125 C-19.1875 8.8525 -19.1875 4.8925 -19.1875 0.8125 C-15.42062136 2.69593932 -14.39328354 3.50382469 -12.1875 6.8125 C-11.8575 4.8325 -11.5275 2.8525 -11.1875 0.8125 C-10.1975 0.8125 -9.2075 0.8125 -8.1875 0.8125 C-7.8575 1.4725 -7.5275 2.1325 -7.1875 2.8125 C-6.65125 2.296875 -6.115 1.78125 -5.5625 1.25 C-3.1875 -0.1875 -3.1875 -0.1875 0 0 Z " fill="#CDCDCD" transform="translate(61.1875,101.1875)"/>
<path d="M0 0 C2.46529955 1.58483543 2.9071255 3.38565786 3.75 6.125 C4.45898438 5.83882812 5.16796875 5.55265625 5.8984375 5.2578125 C8.71312173 4.13965027 11.53631195 3.05571043 14.375 2 C15.31601563 1.64679687 16.25703125 1.29359375 17.2265625 0.9296875 C19.75 0.125 19.75 0.125 22.75 0.125 C21.76 5.075 20.77 10.025 19.75 15.125 C0.25 13.625 0.25 13.625 -2.25 11.125 C-4.57817964 10.75739269 -6.9118385 10.42258419 -9.25 10.125 C-9.04078357 6.46371248 -8.10141649 4.64551181 -5.4375 2.25 C-2.25 0.125 -2.25 0.125 0 0 Z " fill="#B4B4B4" transform="translate(84.25,55.875)"/>
<path d="M0 0 C8.16690417 0.65784493 16.16040215 1.97610124 24.20654297 3.47412109 C26.38977539 3.8777315 28.57553002 4.26510952 30.76171875 4.65234375 C32.16164094 4.91046997 33.56138763 5.1695502 34.9609375 5.4296875 C36.84498291 5.77362549 36.84498291 5.77362549 38.76708984 6.12451172 C41.89350546 6.97116074 43.61676937 7.85844909 46 10 C45.67 11.32 45.34 12.64 45 14 C45 13.34 45 12.68 45 12 C44.34 12 43.68 12 43 12 C43 12.99 43 13.98 43 15 C41.68 15 40.36 15 39 15 C38.34 15.66 37.68 16.32 37 17 C37 15.35 37 13.7 37 12 C36.12214844 11.87753906 35.24429688 11.75507812 34.33984375 11.62890625 C28.40665626 10.78130804 22.48566125 9.85198698 16.5625 8.9375 C15.35400391 8.75123047 14.14550781 8.56496094 12.90039062 8.37304688 C9.93354086 7.9157064 6.96674587 7.45801387 4 7 C3.67 7.99 3.34 8.98 3 10 C0.875 5.375 0.875 5.375 2 2 C1.34 1.34 0.68 0.68 0 0 Z " fill="#C3C3C3" transform="translate(74,26)"/>
<path d="M0 0 C0.33 0.99 0.66 1.98 1 3 C1.66 3 2.32 3 3 3 C3 2.01 3 1.02 3 0 C3.66 0 4.32 0 5 0 C4.59405165 9.99472827 3.31923299 19.24409601 1 29 C0.65890238 30.66509498 0.32258934 32.3312205 0 34 C-0.66 33.01 -1.32 32.02 -2 31 C-3.32 31 -4.64 31 -6 31 C-7.25626677 25.02467986 -6.58141563 20.29240279 -5.25 14.375 C-5.07984375 13.54226562 -4.9096875 12.70953125 -4.734375 11.8515625 C-3.76608351 7.38033413 -2.69335247 3.79236411 0 0 Z M-4 26 C-3 28 -3 28 -3 28 Z " fill="#B6B6B6" transform="translate(114,38)"/>
<path d="M0 0 C2.5 2.3125 2.5 2.3125 5 5 C5 5.99 5 6.98 5 8 C5.99 8 6.98 8 8 8 C7.67 9.65 7.34 11.3 7 13 C6.34 13 5.68 13 5 13 C5.2165625 13.58007812 5.433125 14.16015625 5.65625 14.7578125 C7.28435049 19.32553887 8.37861182 23.0780464 8 28 C7.34 28 6.68 28 6 28 C6 27.34 6 26.68 6 26 C5.01 26 4.02 26 3 26 C3 25.01 3 24.02 3 23 C1.02 23 -0.96 23 -3 23 C-3.33 23.99 -3.66 24.98 -4 26 C-4.66 26 -5.32 26 -6 26 C-5.32323265 20.4505077 -4.05338899 15.05338899 0 11 C0.99 11 1.98 11 3 11 C3 10.34 3 9.68 3 9 C1.35 8.67 -0.3 8.34 -2 8 C-1.34 7.67 -0.68 7.34 0 7 C0 4.69 0 2.38 0 0 Z " fill="#E3E3E3" transform="translate(44,106)"/>
<path d="M0 0 C2.31 0 4.62 0 7 0 C7 2.97 7 5.94 7 9 C8.65 9 10.3 9 12 9 C12.268125 8.443125 12.53625 7.88625 12.8125 7.3125 C14.11616551 4.77378296 15.37008027 2.34708441 17 0 C17.99 0 18.98 0 20 0 C20.67354499 1.43429001 21.33859701 2.87257057 22 4.3125 C22.556875 5.51326172 22.556875 5.51326172 23.125 6.73828125 C24 9 24 9 24 12 C23.01 11.67 22.02 11.34 21 11 C21 10.34 21 9.68 21 9 C19.02 9 17.04 9 15 9 C15 9.99 15 10.98 15 12 C14.34 12 13.68 12 13 12 C12.67 12.66 12.34 13.32 12 14 C9.69 13.34 7.38 12.68 5 12 C4.67 12.99 4.34 13.98 4 15 C3.01 14.67 2.02 14.34 1 14 C-0.38226016 11.23547967 -0.09525387 8.9538637 -0.0625 5.875 C-0.05347656 4.77929688 -0.04445313 3.68359375 -0.03515625 2.5546875 C-0.02355469 1.71164063 -0.01195313 0.86859375 0 0 Z " fill="#B3B3B3" transform="translate(72,120)"/>
<path d="M0 0 C0.93979382 3.03856659 0.99875808 5.20695472 0.44140625 8.328125 C0.23354492 9.52695312 0.23354492 9.52695312 0.02148438 10.75 C-0.12998047 11.575 -0.28144531 12.4 -0.4375 13.25 C-0.65889648 14.51070312 -0.65889648 14.51070312 -0.88476562 15.796875 C-1.2491936 17.86588544 -1.62362541 19.93312939 -2 22 C-8.89386412 21.43028206 -15.59843273 20.44139304 -22.375 19.0625 C-23.25027344 18.89298828 -24.12554687 18.72347656 -25.02734375 18.54882812 C-25.87167969 18.37931641 -26.71601562 18.20980469 -27.5859375 18.03515625 C-28.3392334 17.8844165 -29.0925293 17.73367676 -29.86865234 17.57836914 C-32 17 -32 17 -36 15 C-35.67 12.03 -35.34 9.06 -35 6 C-34.67 6.66 -34.34 7.32 -34 8 C-32.02 7.34 -30.04 6.68 -28 6 C-28.639375 6.5775 -29.27875 7.155 -29.9375 7.75 C-31.98223868 9.98062401 -32.58205199 11.07436391 -33 14 C-31.453125 13.938125 -31.453125 13.938125 -29.875 13.875 C-26.02094408 13.99932438 -23.62389466 14.79203511 -20 16 C-17.22288931 16.62527794 -14.42762583 17.12833213 -11.625 17.625 C-10.88894531 17.7590625 -10.15289062 17.893125 -9.39453125 18.03125 C-7.59705828 18.35806327 -5.79862367 18.67958011 -4 19 C-3.86722656 18.08476563 -3.73445313 17.16953125 -3.59765625 16.2265625 C-3.42105469 15.03804687 -3.24445313 13.84953125 -3.0625 12.625 C-2.88847656 11.44164062 -2.71445313 10.25828125 -2.53515625 9.0390625 C-2 6 -2 6 -1 4 C-1.66 3.67 -2.32 3.34 -3 3 C-2.01 2.67 -1.02 2.34 0 2 C0 1.34 0 0.68 0 0 Z " fill="#EEEEEE" transform="translate(108,52)"/>
<path d="M0 0 C2.31 0 4.62 0 7 0 C7 0.33 7 0.66 7 1 C5.35 1 3.7 1 2 1 C2 1.99 2 2.98 2 4 C3.98 4 5.96 4 8 4 C8 4.66 8 5.32 8 6 C6.02 6 4.04 6 2 6 C2 6.99 2 7.98 2 9 C3.98 9 5.96 9 8 9 C8 10.65 8 12.3 8 14 C8.99 14 9.98 14 11 14 C11 14.66 11 15.32 11 16 C10.01 16 9.02 16 8 16 C8.99 16.33 9.98 16.66 11 17 C11 17.99 11 18.98 11 20 C9.02 20 7.04 20 5 20 C5 20.99 5 21.98 5 23 C6.65 23 8.3 23 10 23 C10 23.33 10 23.66 10 24 C8.35 24 6.7 24 5 24 C5 25.32 5 26.64 5 28 C6.65 28 8.3 28 10 28 C10 28.33 10 28.66 10 29 C7.69 29 5.38 29 3 29 C1.73762269 26.47524538 1.90143596 24.68799534 1.9375 21.875 C1.94652344 20.96492188 1.95554687 20.05484375 1.96484375 19.1171875 C1.97644531 18.41851562 1.98804687 17.71984375 2 17 C2.99 16.67 3.98 16.34 5 16 C5.73323796 13.98491642 5.73323796 13.98491642 6 12 C4.02 12 2.04 12 0 12 C0 8.04 0 4.08 0 0 Z " fill="#D2D2D2" transform="translate(115,102)"/>
<path d="M0 0 C0.77675511 3.39830361 1.19382275 6.51119051 1 10 C0 11 0 11 -3.4375 11.25 C-4.613125 11.1675 -5.78875 11.085 -7 11 C-9.31361802 7.52957297 -9.51020728 6.08165827 -9 2 C-6.09797328 -1.3319566 -4.08536588 -1.24830624 0 0 Z " fill="#E1E1E1" transform="translate(111,102)"/>
<path d="M0 0 C0.99 0 1.98 0 3 0 C3 3.96 3 7.92 3 12 C2.34 12 1.68 12 1 12 C0.67 10.35 0.34 8.7 0 7 C-0.66 8.32 -1.32 9.64 -2 11 C-2.99 10.67 -3.98 10.34 -5 10 C-5.33 9.01 -5.66 8.02 -6 7 C-6.33 8.65 -6.66 10.3 -7 12 C-7.66 12 -8.32 12 -9 12 C-9 8.37 -9 4.74 -9 1 C-8.01 1 -7.02 1 -6 1 C-5.34 2.65 -4.68 4.3 -4 6 C-3.401875 5.01 -2.80375 4.02 -2.1875 3 C-1.465625 2.01 -0.74375 1.02 0 0 Z " fill="#9F9F9F" transform="translate(86,101)"/>
<path d="M0 0 C5.76948428 0.51513252 11.43097739 1.3807347 17.125 2.4375 C17.79337891 2.55971924 18.46175781 2.68193848 19.15039062 2.80786133 C23.52664646 3.63730193 27.73982538 4.72194761 32 6 C32 6.33 32 6.66 32 7 C21.12767477 7.91663632 10.57264004 5.21435046 0 3 C0 2.01 0 1.02 0 0 Z " fill="#F4F4F4" transform="translate(75,23)"/>
<path d="M0 0 C0.99 0 1.98 0 3 0 C3.67354499 1.43429001 4.33859701 2.87257057 5 4.3125 C5.556875 5.51326172 5.556875 5.51326172 6.125 6.73828125 C7 9 7 9 7 12 C6.01 11.67 5.02 11.34 4 11 C4 10.34 4 9.68 4 9 C2.02 9 0.04 9 -2 9 C-2 9.66 -2 10.32 -2 11 C-2.66 11 -3.32 11 -4 11 C-3.5247412 9.35303396 -3.04468109 7.70745272 -2.5625 6.0625 C-2.29566406 5.14597656 -2.02882812 4.22945313 -1.75390625 3.28515625 C-1 1 -1 1 0 0 Z " fill="#9E9E9E" transform="translate(64,120)"/>
<path d="M0 0 C0.99 0 1.98 0 3 0 C3.67354499 1.43429001 4.33859701 2.87257057 5 4.3125 C5.556875 5.51326172 5.556875 5.51326172 6.125 6.73828125 C7 9 7 9 7 12 C6.01 11.67 5.02 11.34 4 11 C4 10.34 4 9.68 4 9 C2.02 9 0.04 9 -2 9 C-2 9.66 -2 10.32 -2 11 C-2.66 11 -3.32 11 -4 11 C-2.95902388 7.13351728 -1.96301592 3.50538557 0 0 Z " fill="#A8A8A8" transform="translate(89,120)"/>
<path d="M0 0 C1.875 0.1875 1.875 0.1875 4 1 C5.87679987 4.37823976 6.21849583 7.17632299 6 11 C5.67 10.34 5.34 9.68 5 9 C3.02 9 1.04 9 -1 9 C-1.33 9.99 -1.66 10.98 -2 12 C-2.66 12 -3.32 12 -4 12 C-3.45660208 7.43545749 -2.20536179 4.0271824 0 0 Z " fill="#9C9C9C" transform="translate(42,120)"/>
<path d="M0 0 C0.33 0.66 0.66 1.32 1 2 C2.98 1.34 4.96 0.68 7 0 C6.0409375 0.86625 6.0409375 0.86625 5.0625 1.75 C3.01776132 3.98062401 2.41794801 5.07436391 2 8 C3.546875 7.938125 3.546875 7.938125 5.125 7.875 C8.86829627 7.99575149 11.53734547 8.64872018 15 10 C15 10.99 15 11.98 15 13 C9.13190493 12.47606294 4.45126259 11.23891142 -1 9 C-0.67 6.03 -0.34 3.06 0 0 Z " fill="#EEEEEE" transform="translate(73,58)"/>
<path d="M0 0 C3.76687864 1.88343932 4.79421646 2.69132469 7 6 C7.33 4.02 7.66 2.04 8 0 C8.66 0 9.32 0 10 0 C10 3.63 10 7.26 10 11 C6.23312136 9.11656068 5.20578354 8.30867531 3 5 C2.67 6.98 2.34 8.96 2 11 C1.34 11 0.68 11 0 11 C0 7.37 0 3.74 0 0 Z " fill="#989898" transform="translate(42,102)"/>
<path d="M0 0 C0.99 0.33 1.98 0.66 3 1 C3.33 6.28 3.66 11.56 4 17 C3.01 16.67 2.02 16.34 1 16 C-0.14077657 12.57767028 -0.09815117 9.91326783 -0.0625 6.3125 C-0.05347656 5.13300781 -0.04445313 3.95351562 -0.03515625 2.73828125 C-0.02355469 1.83464844 -0.01195313 0.93101563 0 0 Z M4 1 C4.33 1 4.66 1 5 1 C5 4.63 5 8.26 5 12 C5.66 12.33 6.32 12.66 7 13 C6.01 13 5.02 13 4 13 C4 9.04 4 5.08 4 1 Z " fill="#BFBFBF" transform="translate(72,101)"/>
<path d="M0 0 C1.6105311 4.02632775 0.17723475 6.98355203 -1 11 C-0.95875 12.0725 -0.9175 13.145 -0.875 14.25 C-1 17 -1 17 -3 18.875 C-3.99 19.431875 -3.99 19.431875 -5 20 C-5.22535058 13.9155343 -5.01810029 7.80608533 -3 2 C-2.01 1.34 -1.02 0.68 0 0 Z " fill="#F5F5F5" transform="translate(118,60)"/>
<path d="M0 0 C2.64 0 5.28 0 8 0 C8.33 1.32 8.66 2.64 9 4 C8.67 3.34 8.34 2.68 8 2 C6.02 2 4.04 2 2 2 C2 2.99 2 3.98 2 5 C3.65 5 5.3 5 7 5 C7 5.33 7 5.66 7 6 C5.35 6 3.7 6 2 6 C2 7.32 2 8.64 2 10 C4.47266765 9.65555119 4.47266765 9.65555119 7 9 C7.33 8.34 7.66 7.68 8 7 C8.66 7 9.32 7 10 7 C9.67 8.32 9.34 9.64 9 11 C6.03 11 3.06 11 0 11 C0 7.37 0 3.74 0 0 Z " fill="#9A9A9A" transform="translate(97,120)"/>
<path d="M0 0 C1.1875 1.5625 1.1875 1.5625 2 4 C0.625 7.75 0.625 7.75 -1 11 C-0.34 11.33 0.32 11.66 1 12 C-1.475 13.485 -1.475 13.485 -4 15 C-5.21405922 11.50448721 -4.777272 9.30906703 -3.6875 5.8125 C-3.42324219 4.93207031 -3.15898438 4.05164063 -2.88671875 3.14453125 C-2 1 -2 1 0 0 Z " fill="#E4E4E4" transform="translate(61,120)"/>
<path d="M0 0 C1.32 0.66 2.64 1.32 4 2 C4.042721 3.66611905 4.04063832 5.33382885 4 7 C3 8 3 8 0.5 8.125 C-2 8 -2 8 -3 7 C-3.25 4.5625 -3.25 4.5625 -3 2 C-2.01 1.34 -1.02 0.68 0 0 Z " fill="#E7E7E7" transform="translate(59,103)"/>
<path d="M0 0 C0.66 0 1.32 0 2 0 C3.76462683 3.08809695 4 4.23312136 4 8 C4.66 8 5.32 8 6 8 C6.66 5.69 7.32 3.38 8 1 C8.99 1 9.98 1 11 1 C9.68 4.3 8.36 7.6 7 11 C5.68 11 4.36 11 3 11 C2.01 7.37 1.02 3.74 0 0 Z " fill="#9B9B9B" transform="translate(49,120)"/>
<path d="M0 0 C3.465 1.485 3.465 1.485 7 3 C6.67 4.98 6.34 6.96 6 9 C4.35 9.33 2.7 9.66 1 10 C-0.04005702 6.61981469 -0.08004482 3.5219721 0 0 Z " fill="#EAEAEA" transform="translate(80,119)"/>
<path d="M0 0 C2.31 0 4.62 0 7 0 C7 0.33 7 0.66 7 1 C5.35 1 3.7 1 2 1 C2 1.99 2 2.98 2 4 C3.98 4 5.96 4 8 4 C8 4.66 8 5.32 8 6 C6.02 6 4.04 6 2 6 C2 7.32 2 8.64 2 10 C3.65 10 5.3 10 7 10 C7 10.33 7 10.66 7 11 C4.69 11 2.38 11 0 11 C0 7.37 0 3.74 0 0 Z " fill="#989898" transform="translate(115,102)"/>
<path d="M0 0 C1.98 0 3.96 0 6 0 C6.625 2.3125 6.625 2.3125 7 5 C6.01 6.485 6.01 6.485 5 8 C2.375 8.1875 2.375 8.1875 0 8 C0 5.36 0 2.72 0 0 Z " fill="#CCCCCC" transform="translate(99,122)"/>
<path d="M0 0 C-0.33 1.98 -0.66 3.96 -1 6 C-1.54140625 5.82597656 -2.0828125 5.65195312 -2.640625 5.47265625 C-5.48751809 4.90233495 -7.86718522 5.12862699 -10.75 5.4375 C-11.73484375 5.53933594 -12.7196875 5.64117187 -13.734375 5.74609375 C-14.85585937 5.87177734 -14.85585937 5.87177734 -16 6 C-13.63224279 3.63224279 -11.70288662 3.00103504 -8.5625 1.875 C-7.59441406 1.52179687 -6.62632813 1.16859375 -5.62890625 0.8046875 C-3 0 -3 0 0 0 Z " fill="#BBBBBB" transform="translate(107,56)"/>
<path d="M0 0 C0.99 0 1.98 0 3 0 C3.67119549 1.4562545 4.33681807 2.91507867 5 4.375 C5.556875 5.59316406 5.556875 5.59316406 6.125 6.8359375 C7 9 7 9 7 11 C6.34 11 5.68 11 5 11 C4.01 8.36 3.02 5.72 2 3 C0.68 5.64 -0.64 8.28 -2 11 C-2.66 10.67 -3.32 10.34 -4 10 C-2.68 6.7 -1.36 3.4 0 0 Z " fill="#989898" transform="translate(94,102)"/>
<path d="M0 0 C2.46008778 0.08679142 4.91643517 0.19360955 7.375 0.3125 C8.07367188 0.33505859 8.77234375 0.35761719 9.4921875 0.38085938 C11.5234375 0.48828125 11.5234375 0.48828125 15 1 C15.66 1.99 16.32 2.98 17 4 C11.87416389 4.10251672 7.05002222 4.03590199 2 3 C2 2.34 2 1.68 2 1 C1.34 0.67 0.68 0.34 0 0 Z " fill="#F2F2F2" transform="translate(69,79)"/>
<path d="M0 0 C2.31 0 4.62 0 7 0 C7 0.33 7 0.66 7 1 C5.35 1 3.7 1 2 1 C2 2.32 2 3.64 2 5 C3.65 5 5.3 5 7 5 C7 5.33 7 5.66 7 6 C5.35 6 3.7 6 2 6 C2 7.32 2 8.64 2 10 C3.65 10 5.3 10 7 10 C7 10.33 7 10.66 7 11 C4.69 11 2.38 11 0 11 C0 7.37 0 3.74 0 0 Z " fill="#8E8E8E" transform="translate(118,120)"/>
<path d="M0 0 C11.52164009 0.77904328 11.52164009 0.77904328 17 3 C17 3.33 17 3.66 17 4 C10.66606918 4.34548714 5.89738492 3.29342747 0 1 C0 0.67 0 0.34 0 0 Z " fill="#F8F8F8" transform="translate(87,69)"/>
<path d="M0 0 C0.66 0 1.32 0 2 0 C2 2.97 2 5.94 2 9 C3.65 9 5.3 9 7 9 C7 9.66 7 10.32 7 11 C4.69 11 2.38 11 0 11 C0 7.37 0 3.74 0 0 Z " fill="#A0A0A0" transform="translate(109,120)"/>
<path d="M0 0 C0.99 0 1.98 0 3 0 C4.4606285 2.64738916 5 3.89448334 5 7 C3.35 7 1.7 7 0 7 C-0.38133299 5.0085944 -0.71325582 3.00720923 -1 1 C-0.67 0.67 -0.34 0.34 0 0 Z " fill="#B3B3B3" transform="translate(64,120)"/>
<path d="M0 0 C0.66 0 1.32 0 2 0 C2.33 1.98 2.66 3.96 3 6 C5.31 6.33 7.62 6.66 10 7 C9.67 7.66 9.34 8.32 9 9 C5.625 9.1875 5.625 9.1875 2 9 C-0.29013653 5.5647952 -0.17842973 4.014669 0 0 Z " fill="#9C9C9C" transform="translate(54,104)"/>
<path d="M0 0 C0.33 0.66 0.66 1.32 1 2 C-1.64 2 -4.28 2 -7 2 C-7 4.31 -7 6.62 -7 9 C-7.66 8.67 -8.32 8.34 -9 8 C-9.25 5.1875 -9.25 5.1875 -9 2 C-6.14065279 -1.28295421 -4.02254502 -1.41332663 0 0 Z " fill="#9C9C9C" transform="translate(111,102)"/>
<path d="M0 0 C1.65 0 3.3 0 5 0 C5.042721 1.66611905 5.04063832 3.33382885 5 5 C4 6 4 6 0.4375 6.0625 C-0.696875 6.041875 -1.83125 6.02125 -3 6 C-3 5.34 -3 4.68 -3 4 C-1.02 4 0.96 4 3 4 C3 3.34 3 2.68 3 2 C2.01 2 1.02 2 0 2 C0 1.34 0 0.68 0 0 Z " fill="#9F9F9F" transform="translate(107,107)"/>
<path d="M0 0 C0.99 0.33 1.98 0.66 3 1 C3 3.31 3 5.62 3 8 C2.34 8 1.68 8 1 8 C0.34 9.32 -0.32 10.64 -1 12 C-1.08159574 7.83861737 -0.98248524 4.0527516 0 0 Z " fill="#F8F8F8" transform="translate(118,48)"/>
<path d="M0 0 C1.74627478 2.61941217 2.38722388 4.03824877 3 7 C1.02 7 -0.96 7 -3 7 C-2.625 4.0625 -2.625 4.0625 -2 1 C-1.34 0.67 -0.68 0.34 0 0 Z " fill="#BCBCBC" transform="translate(45,121)"/>
<path d="M0 0 C1.65 1.65 3.3 3.3 5 5 C3.73577236 7.52845528 2.47154472 7.76422764 0 9 C-0.66 8.34 -1.32 7.68 -2 7 C-1.34 7 -0.68 7 0 7 C0 4.69 0 2.38 0 0 Z " fill="#E0E0E0" transform="translate(44,106)"/>
<path d="M0 0 C7.50769231 -0.36923077 7.50769231 -0.36923077 10 1.5 C10.495 2.2425 10.495 2.2425 11 3 C7.33333333 3 3.66666667 3 0 3 C0 2.01 0 1.02 0 0 Z " fill="#F2F2F2" transform="translate(96,84)"/>
<path d="M0 0 C0.33 0 0.66 0 1 0 C1 3.63 1 7.26 1 11 C-0.32 10.67 -1.64 10.34 -3 10 C-2.67 8.35 -2.34 6.7 -2 5 C-1.34 5 -0.68 5 0 5 C0 3.35 0 1.7 0 0 Z " fill="#D2D2D2" transform="translate(114,102)"/>
<path d="M0 0 C0.66 0.66 1.32 1.32 2 2 C1.67 2.66 1.34 3.32 1 4 C1.66 4.33 2.32 4.66 3 5 C2.34 5 1.68 5 1 5 C0.67 5.66 0.34 6.32 0 7 C-2.31 6.34 -4.62 5.68 -7 5 C-6.34 4.01 -5.68 3.02 -5 2 C-2.375 1.8125 -2.375 1.8125 0 2 C0 1.34 0 0.68 0 0 Z " fill="#CFCFCF" transform="translate(84,127)"/>
<path d="M0 0 C0.598125 0.165 1.19625 0.33 1.8125 0.5 C4.11344336 1.1114124 4.11344336 1.1114124 7 1 C6.34 3.64 5.68 6.28 5 9 C3.88941214 6.92690266 3.02601506 5.11381589 2.5 2.8125 C2.335 2.214375 2.17 1.61625 2 1 C1.34 0.67 0.68 0.34 0 0 Z " fill="#DCDCDC" transform="translate(49,119)"/>
<path d="M0 0 C2 1 2 1 3.125 4.0625 C3.41375 5.031875 3.7025 6.00125 4 7 C2.02 7 0.04 7 -2 7 C-1.34 4.69 -0.68 2.38 0 0 Z " fill="#C0C0C0" transform="translate(95,104)"/>
<path d="M0 0 C0.99 0.33 1.98 0.66 3 1 C2.67 1.66 2.34 2.32 2 3 C2.66 3.33 3.32 3.66 4 4 C1.525 5.485 1.525 5.485 -1 7 C-2.125 3.25 -2.125 3.25 -1 1 C-0.67 0.67 -0.34 0.34 0 0 Z " fill="#DEDEDE" transform="translate(58,128)"/>
<path d="M0 0 C0.33 0 0.66 0 1 0 C1 2.64 1 5.28 1 8 C-0.98 8 -2.96 8 -5 8 C-4.67 7.01 -4.34 6.02 -4 5 C-3.01 5 -2.02 5 -1 5 C-0.67 3.35 -0.34 1.7 0 0 Z " fill="#E4E4E4" transform="translate(105,66)"/>
<path d="M0 0 C-0.33 0.66 -0.66 1.32 -1 2 C-3.64 2 -6.28 2 -9 2 C-9 1.34 -9 0.68 -9 0 C-5.93109813 -1.53445094 -3.29905734 -0.54984289 0 0 Z " fill="#F8F8F8" transform="translate(95,83)"/>
<path d="M0 0 C1.98 0 3.96 0 6 0 C5.67 0.66 5.34 1.32 5 2 C5.33 2.99 5.66 3.98 6 5 C4.35 4.67 2.7 4.34 1 4 C0.67 2.68 0.34 1.36 0 0 Z " fill="#DFDFDF" transform="translate(62,129)"/>
<path d="M0 0 C0.99 0.495 0.99 0.495 2 1 C2.33 1.99 2.66 2.98 3 4 C3.66 4.33 4.32 4.66 5 5 C5 5.66 5 6.32 5 7 C3.68 7 2.36 7 1 7 C0.67 4.69 0.34 2.38 0 0 Z " fill="#DCDCDC" transform="translate(79,107)"/>
<path d="M0 0 C0.33 0.66 0.66 1.32 1 2 C2.98 1.34 4.96 0.68 7 0 C6.38125 0.598125 5.7625 1.19625 5.125 1.8125 C2.86323046 4.00811144 2.86323046 4.00811144 1 7 C0.67 4.69 0.34 2.38 0 0 Z " fill="#D4D4D4" transform="translate(73,58)"/>
<path d="M0 0 C0.99 0.495 0.99 0.495 2 1 C1.67 2.32 1.34 3.64 1 5 C0.67 5 0.34 5 0 5 C0 3.35 0 1.7 0 0 Z M-2 1 C-0.9375 2.875 -0.9375 2.875 0 5 C-0.33 5.66 -0.66 6.32 -1 7 C-1.66 7 -2.32 7 -3 7 C-2.67 5.02 -2.34 3.04 -2 1 Z " fill="#EFEFEF" transform="translate(118,55)"/>
</svg>
